<?xml version="1.0" standalone="no"?>
<!DOCTYPE svg PUBLIC "-//W3C//DTD SVG 20010904//EN"
 "http://www.w3.org/TR/2001/REC-SVG-20010904/DTD/svg10.dtd">
<svg version="1.0" xmlns="http://www.w3.org/2000/svg"
 width="828.000000pt" height="915.000000pt" viewBox="0 0 828.000000 915.000000"
 preserveAspectRatio="xMidYMid meet">

<g transform="translate(0.000000,915.000000) scale(0.100000,-0.100000)"
fill="#000000" stroke="none">
<path d="M0 4575 l0 -4575 4140 0 4140 0 0 4575 0 4575 -4140 0 -4140 0 0
-4575z m2589 619 c57 -47 32 -120 -44 -131 -83 -11 -128 75 -70 132 32 33 75
32 114 -1z m-383 1 c53 -15 109 -66 138 -122 10 -19 16 -57 16 -94 0 -93 -37
-158 -114 -204 -15 -9 -7 -27 69 -154 47 -79 84 -145 83 -147 -2 -1 -33 -4
-70 -7 -54 -3 -70 -1 -81 12 -8 9 -45 71 -83 138 l-69 123 -57 0 -57 0 -3
-137 -3 -136 -68 -1 -67 -1 0 373 0 372 158 0 c110 0 173 -4 208 -15z m849
-214 c65 -29 71 -42 39 -91 -15 -22 -30 -39 -33 -37 -100 56 -175 44 -235 -37
-15 -20 -21 -42 -21 -86 0 -50 5 -64 31 -96 50 -62 130 -77 205 -38 27 13 28
13 54 -31 14 -25 23 -50 19 -56 -16 -27 -98 -51 -169 -51 -165 0 -279 111
-279 272 0 200 205 332 389 251z m460 -10 c29 -15 62 -44 80 -69 26 -38 30
-54 34 -123 l3 -79 -176 0 c-197 0 -195 1 -158 -69 35 -66 128 -89 222 -56 48
17 54 15 75 -25 15 -28 14 -30 -10 -46 -65 -43 -184 -57 -269 -32 -55 16 -138
99 -154 154 -17 57 -15 161 3 215 17 48 71 111 116 135 77 39 154 38 234 -5z
m-915 -240 c0 -162 -4 -261 -10 -263 -5 -1 -35 -1 -65 0 l-55 4 0 259 0 259
65 0 65 0 0 -259z m3630 -1983 l15 -28 -110 -110 c-97 -97 -114 -110 -140
-108 -26 3 -30 7 -33 37 -3 31 5 42 100 138 113 114 138 124 168 71z"/>
<path d="M1980 4975 l0 -115 88 0 c67 0 92 4 108 18 30 23 44 55 44 94 -1 81
-53 118 -167 118 l-73 0 0 -115z"/>
<path d="M3326 4868 c-19 -18 -37 -43 -41 -55 -6 -23 -6 -23 109 -23 128 0
130 2 96 58 -37 61 -111 70 -164 20z"/>
<path d="M6162 2747 c-17 -20 23 -56 41 -38 8 8 9 16 1 28 -14 23 -29 26 -42
10z"/>
<path d="M6052 2637 c-75 -75 -89 -107 -49 -107 15 0 48 25 96 74 64 64 73 77
61 90 -7 9 -18 16 -24 16 -6 0 -44 -33 -84 -73z"/>
</g>
</svg>
